<svg width="109" height="34" viewBox="0 0 109 34" fill="none" xmlns="http://www.w3.org/2000/svg">
<path d="M15.08 17.26C13.7467 16.5667 12.44 16.22 11.16 16.22C10.4933 16.22 9.94667 16.3533 9.52 16.62C9.12 16.8867 8.92 17.2467 8.92 17.7C8.92 17.94 8.94667 18.14 9 18.3C9.08 18.4333 9.22667 18.5667 9.44 18.7C9.68 18.8333 10.0133 18.9533 10.44 19.06C10.8933 19.1667 11.48 19.3 12.2 19.46C14.2 19.86 15.6933 20.58 16.68 21.62C17.6667 22.6333 18.16 23.94 18.16 25.54C18.16 26.74 17.92 27.82 17.44 28.78C16.96 29.74 16.2933 30.5533 15.44 31.22C14.5867 31.86 13.56 32.3533 12.36 32.7C11.16 33.0733 9.84 33.26 8.4 33.26C5.62667 33.26 2.89333 32.4733 0.2 30.9L2.84 25.78C4.86667 27.1667 6.78667 27.86 8.6 27.86C9.26667 27.86 9.81333 27.7133 10.24 27.42C10.6667 27.1267 10.88 26.7533 10.88 26.3C10.88 26.0333 10.84 25.82 10.76 25.66C10.7067 25.4733 10.5733 25.3133 10.36 25.18C10.1467 25.02 9.82667 24.8867 9.4 24.78C9 24.6467 8.46667 24.5133 7.8 24.38C5.56 23.9267 3.98667 23.26 3.08 22.38C2.2 21.4733 1.76 20.2333 1.76 18.66C1.76 17.5133 1.97333 16.4867 2.4 15.58C2.82667 14.6467 3.44 13.86 4.24 13.22C5.04 12.58 6 12.0867 7.12 11.74C8.26667 11.3933 9.53333 11.22 10.92 11.22C13.1867 11.22 15.3867 11.66 17.52 12.54L15.08 17.26ZM27.4316 11.98L32.3516 22.78L37.4716 11.98H42.0316L47.1516 23.1L52.3116 11.98H60.3516L49.6316 32.5H44.7916L39.6716 21.26L34.7916 32.5H29.8716L19.3516 11.98H27.4316ZM70.0872 11.98V32.5H62.8472V11.98H70.0872ZM62.3672 4.1C62.3672 3.54 62.4739 3.02 62.6872 2.54C62.9005 2.03333 63.1939 1.59333 63.5672 1.22C63.9405 0.846664 64.3672 0.553331 64.8472 0.339999C65.3539 0.126665 65.8872 0.0199986 66.4472 0.0199986C67.0072 0.0199986 67.5272 0.126665 68.0072 0.339999C68.5139 0.553331 68.9539 0.846664 69.3272 1.22C69.7005 1.59333 69.9939 2.03333 70.2072 2.54C70.4205 3.02 70.5272 3.54 70.5272 4.1C70.5272 4.66 70.4205 5.19333 70.2072 5.7C69.9939 6.18 69.7005 6.60667 69.3272 6.98C68.9539 7.35333 68.5139 7.64667 68.0072 7.86C67.5272 8.07333 67.0072 8.18 66.4472 8.18C65.8872 8.18 65.3539 8.07333 64.8472 7.86C64.3672 7.64667 63.9405 7.35333 63.5672 6.98C63.1939 6.60667 62.9005 6.18 62.6872 5.7C62.4739 5.19333 62.3672 4.66 62.3672 4.1ZM88.6347 17.26C87.3014 16.5667 85.9947 16.22 84.7147 16.22C84.048 16.22 83.5014 16.3533 83.0747 16.62C82.6747 16.8867 82.4747 17.2467 82.4747 17.7C82.4747 17.94 82.5014 18.14 82.5547 18.3C82.6347 18.4333 82.7814 18.5667 82.9947 18.7C83.2347 18.8333 83.568 18.9533 83.9947 19.06C84.448 19.1667 85.0347 19.3 85.7547 19.46C87.7547 19.86 89.248 20.58 90.2347 21.62C91.2214 22.6333 91.7147 23.94 91.7147 25.54C91.7147 26.74 91.4747 27.82 90.9947 28.78C90.5147 29.74 89.848 30.5533 88.9947 31.22C88.1414 31.86 87.1147 32.3533 85.9147 32.7C84.7147 33.0733 83.3947 33.26 81.9547 33.26C79.1814 33.26 76.448 32.4733 73.7547 30.9L76.3947 25.78C78.4214 27.1667 80.3414 27.86 82.1547 27.86C82.8214 27.86 83.368 27.7133 83.7947 27.42C84.2214 27.1267 84.4347 26.7533 84.4347 26.3C84.4347 26.0333 84.3947 25.82 84.3147 25.66C84.2614 25.4733 84.128 25.3133 83.9147 25.18C83.7014 25.02 83.3814 24.8867 82.9547 24.78C82.5547 24.6467 82.0214 24.5133 81.3547 24.38C79.1147 23.9267 77.5414 23.26 76.6347 22.38C75.7547 21.4733 75.3147 20.2333 75.3147 18.66C75.3147 17.5133 75.528 16.4867 75.9547 15.58C76.3814 14.6467 76.9947 13.86 77.7947 13.22C78.5947 12.58 79.5547 12.0867 80.6747 11.74C81.8214 11.3933 83.088 11.22 84.4747 11.22C86.7414 11.22 88.9414 11.66 91.0747 12.54L88.6347 17.26ZM104.013 18.02V32.5H96.7731V18.02H94.3731V11.98H96.7731V5.82H104.013V11.98H108.133V18.02H104.013Z" fill="white"/>
</svg>
